<?xml version="1.0"?><svg width="800" height="600" xmlns="http://www.w3.org/2000/svg">
 <title>bare tree</title>
 <metadata id="metadata2977">image/svg+xmlTreeA tree. From The Encyclopedia of Practical Horticulture A Reference System of Commercial Horticulture; Editor in Chief GRANVILLE LOWTHER; copyright 1914 (therefore in public domain)2010-10-25entreeplantvegetationbrancheshttp://books.google.com/books?id=A6oMAAAAYAAJ&amp;pg=PA137&amp;img=1&amp;zoom=3&amp;hl=en&amp;sig=ACfU3U3siAuTE5T4WTQ16ZEl2y8IHr8VwA&amp;ci=133%2C353%2C369%2C247&amp;edge=0THE ENCYCLOPEDIA OF HORTICULTURE CORPORATION</metadata>
 <g>
  <title>Layer 1</title>
  <g id="layer1">
   <path stroke="#000000" fill="#000000" id="path2996" d="m357.004333,434.360413c-8.098938,-2.650818 -16.15921,-4.836243 -17.911713,-4.856506c-1.752441,-0.019958 -7.817169,-2.311646 -13.477081,-5.091919c-6.537445,-3.211487 -10.612671,-4.073364 -11.17337,-2.363159c-0.495544,1.511292 -2.293091,0.730743 -4.098694,-1.779663c-2.069397,-2.877625 -2.920868,-9.819458 -2.388214,-19.471252c0.455231,-8.249512 0.280548,-12.472717 -0.388123,-9.384766c-0.668762,3.088135 -2.317902,5.614502 -3.664795,5.614502c-2.900757,0 -0.124176,-10.495514 3.383118,-12.788574c1.472015,-0.96225 1.502045,-2.114624 0.078491,-3.009216c-3.787109,-2.379761 -0.455322,-16.583435 4.525787,-19.293823c2.540985,-1.382751 4.619965,-3.636841 4.619965,-5.009216c0,-1.571045 -1.896301,-1.463501 -5.118713,0.289978c-2.815216,1.53186 -5.733429,2.160095 -6.484924,1.395996c-1.275909,-1.297302 -2.523132,-20.307068 -3.046143,-46.426636c-0.378326,-18.89032 -5.274658,-5.136566 -5.992401,16.832581c-0.385773,11.808716 -1.714294,19.440918 -3.488678,20.042206c-1.576141,0.534271 -2.865662,-1.165863 -2.865662,-3.777863c0,-2.612183 -3.229706,-8.427277 -7.177063,-12.922821l-7.177124,-8.173492l-0.799133,7.10022c-0.755859,6.715363 -1.398041,7.074463 -11.843201,6.62323l-11.044037,-0.477173l12.271179,5.938477c6.749115,3.266113 13.55307,6.007446 15.119904,6.091644c1.566956,0.084076 5.156219,4.999359 7.976257,10.922272c6.376129,13.391907 7.294617,50.096558 1.536896,61.417267c-3.586884,7.052399 -10.182434,11.60202 -14.816162,10.220184c-4.38446,-1.307373 -20.031128,0.045959 -28.254486,2.443848c-5.002075,1.45874 -9.512085,1.456329 -11.973206,-0.007477c-3.118256,-1.852936 -2.40036,-2.399078 3.414276,-2.597534c8.492493,-0.289825 15.728363,-2.805695 15.86087,-5.515045c0.050323,-1.029266 0.091583,-3.555847 0.091583,-5.614532c0,-2.058533 1.656616,-3.743011 3.681366,-3.743011c2.024689,0 3.681335,2.171265 3.681335,4.824982c0,6.044647 10.726166,7.92514 19.908051,3.490356c6.953644,-3.358612 9.465698,-12.223419 9.515656,-33.580597c0.064789,-27.721985 -5.029907,-34.963562 -33.892944,-48.173859c-20.007568,-9.157257 -21.00296,-9.341705 -49.084595,-9.096954c-28.815002,0.25116 -42.449463,2.806824 -49.826111,9.339539c-2.190979,1.940369 -9.399109,4.398254 -16.017975,5.462036c-6.618866,1.063873 -15.763855,3.82605 -20.322113,6.138c-9.505981,4.822845 -9.988098,4.927643 -9.988098,2.171875c0,-3.165039 16.59082,-10.434784 24.012024,-10.521454c3.666229,-0.042938 11.083466,-2.844269 16.482758,-6.225555c5.399292,-3.381104 11.749664,-6.153351 14.111816,-6.160522c2.362244,-0.007446 4.294922,-0.972748 4.294922,-2.146118c0,-1.173279 -7.454712,-2.889038 -16.566071,-3.812592c-9.111298,-0.923676 -20.09198,-2.327484 -24.401581,-3.119446c-7.18689,-1.321106 -8.141571,-0.695557 -11.532349,7.555573c-2.661499,6.47644 -5.213104,8.995819 -9.11084,8.995819c-5.279724,0 -5.302521,-0.125183 -0.919556,-5.049622c2.711578,-3.046356 3.592682,-5.911835 2.221069,-7.223114c-2.146301,-2.052124 -20.562042,-0.323792 -37.968048,3.563293c-4.819519,1.076294 -7.30603,0.831726 -6.416809,-0.631165c0.798462,-1.313599 11.70459,-3.781097 24.235779,-5.483368c30.134338,-4.093445 31.998932,-4.862457 21.556885,-8.889496c-22.354919,-8.621582 -37.016357,-11.832275 -45.985657,-10.070435c-19.497498,3.830109 -24.369385,3.864838 -13.172913,0.093811c5.932739,-1.998077 11.285706,-4.140228 11.895386,-4.760101c0.60968,-0.61972 -3.523193,-3.52948 -9.184082,-6.465881c-5.660889,-2.936279 -9.667786,-5.973969 -8.904236,-6.750397c0.763672,-0.776276 3.907776,0.240662 6.987,2.259735c6.605408,4.331512 45.235168,19.498016 49.37088,19.383636c1.57196,-0.043396 -0.178955,-2.382935 -3.891083,-5.1987c-10.771057,-8.170776 -7.796997,-10.226715 3.681366,-2.545013c11.016235,7.372375 39.908142,17.824219 49.136108,17.775146c4.554108,-0.024963 2.857941,-2.558228 -10.125092,-15.127045c-8.577576,-8.303741 -15.044922,-15.657684 -14.371826,-16.342163c0.673096,-0.684265 6.034454,3.443604 11.914246,9.173248c16.625183,16.2005 24.483795,21.408661 36.933044,24.47699c14.068542,3.467468 38.794495,3.73645 38.794495,0.422028c0,-1.329163 -6.350342,-7.224365 -14.111847,-13.100525c-12.419861,-9.402924 -15.656555,-10.683929 -26.996521,-10.683929c-7.086548,0 -12.884674,-0.842102 -12.884674,-1.871521c0,-1.029236 5.522003,-1.87149 12.271149,-1.87149c6.749115,0 12.257507,-0.842072 12.240723,-1.87149c-0.036987,-2.280273 -16.128937,-13.100555 -19.483215,-13.100555c-1.321594,0 -7.135162,-1.616241 -12.919128,-3.591888c-13.553162,-4.629272 -35.78476,-5.348633 -55.846161,-1.806946c-8.733521,1.541779 -16.802429,1.864349 -17.930908,0.717041c-1.833557,-1.864197 19.036499,-5.4133 38.718536,-6.584412c11.917847,-0.708923 10.116516,-4.425293 -6.363281,-13.128357c-8.513916,-4.496307 -17.428955,-9.968414 -19.811188,-12.160522c-3.023804,-2.782349 -6.394775,-3.449295 -11.166504,-2.209305c-13.580811,3.529022 -27.696167,4.377045 -27.696167,1.663986c0,-1.46759 1.64386,-2.026993 3.652893,-1.243088c4.260193,1.662155 28.252136,-3.731064 28.252136,-6.350906c0,-4.160172 -10.277649,-12.458557 -18.902222,-15.261932c-5.12677,-1.666519 -10.425781,-4.182404 -11.775574,-5.591064c-1.665588,-1.738083 -1.000732,-2.038727 2.068604,-0.935608c2.487671,0.894104 7.303467,2.335129 10.701965,3.202423c5.45575,1.392197 5.984253,0.952881 4.515076,-3.753677c-2.608459,-8.356033 0.090759,-6.289444 6.889465,5.274719c9.548096,16.241013 21.885223,28.397812 36.333252,35.802048c7.215149,3.697601 18.088287,9.29657 24.162476,12.442108c6.07428,3.14566 11.354767,4.8414 11.734497,3.76828c1.281128,-3.620087 -8.56665,-23.828171 -20.123871,-41.294846c-11.790131,-17.818893 -29.141479,-30.948868 -43.149445,-32.651932c-14.609863,-1.776169 -22.721985,-3.460648 -24.192444,-5.023346c-0.86731,-0.921829 5.428894,-0.865921 13.991577,0.124268c15.154633,1.752487 15.497101,1.664764 12.884705,-3.298431c-3.35907,-6.381592 -3.506836,-17.903488 -0.229492,-17.903488c1.349854,0 2.454254,3.481049 2.454254,7.735565c0,8.459396 10.129578,20.275391 23.511292,27.42543c7.308655,3.90506 22.262207,24.031784 34.74472,46.764648c3.494415,6.364014 9.175537,13.834351 12.624756,16.600769c7.83847,6.287079 17.87738,11.687622 19.208984,10.333618c0.554016,-0.563202 -1.266907,-8.067627 -4.046478,-16.676422c-2.77951,-8.608826 -4.979889,-17.4319 -4.889557,-19.607101c0.090332,-2.175034 1.648041,0.878342 3.461639,6.785431c9.741821,31.730423 15.530212,41.132889 33.910858,55.083237c17.142273,13.010529 33.182129,21.68512 50.713165,27.426331c11.233459,3.679047 14.443085,0.505981 10.42804,-10.30896c-1.89621,-5.107941 -2.102325,-8.372253 -0.561554,-8.894501c1.444092,-0.489349 0.926056,-3.790222 -1.273743,-8.115326c-4.538055,-8.922546 -6.77005,-9.578217 -3.581909,-1.052124c1.283051,3.431091 1.405731,6.238342 0.272705,6.238342c-1.133057,0 -3.906403,-4.915588 -6.162964,-10.92334c-5.318604,-14.15979 -9.065643,-17.226135 -29.276459,-23.957764c-14.920868,-4.969818 -17.958344,-5.241211 -27.68042,-2.473724c-13.673462,3.892426 -16.823853,1.808319 -3.432861,-2.270844c5.40802,-1.647461 9.832733,-3.488647 9.832733,-4.091492c0,-0.602814 -4.99234,-5.775024 -11.094208,-11.493713c-15.128998,-14.178986 -12.074432,-15.148102 4.494934,-1.42601c12.136139,10.050491 44.12146,24.30867 47.294495,21.082565c2.767517,-2.813934 -8.799011,-22.341812 -16.262115,-27.455399c-4.55661,-3.122223 -13.100586,-12.11879 -18.986633,-19.992554c-9.397736,-12.57135 -11.737091,-14.315918 -19.196991,-14.315918c-4.672363,0 -12.459961,1.684418 -17.305878,3.743027c-11.890594,5.051437 -19.026062,4.395538 -8.211243,-0.754822l8.589752,-4.090729l-7.976166,-0.854477c-4.386963,-0.470016 -7.976257,-1.819672 -7.976257,-2.999329c0,-1.179657 8.502899,-1.490967 18.895386,-0.691818l18.895416,1.453033l-5.185516,-8.507584c-2.85199,-4.679214 -8.870056,-10.990143 -13.373413,-14.024246c-4.503326,-3.034103 -11.954956,-8.367844 -16.559296,-11.852859c-8.92038,-6.751755 -19.397156,-8.09491 -27.738129,-3.556213c-3.78476,2.059525 -7.621765,2.014664 -14.802979,-0.172867c-5.331665,-1.624161 -9.090576,-3.566483 -8.353149,-4.316269c0.737396,-0.749802 4.642639,-0.192886 8.678314,1.237473c5.786224,2.050903 9.834106,1.627808 19.145569,-2.001114c6.923676,-2.698273 10.285187,-5.085098 8.126617,-5.770248c-2.024689,-0.642563 -8.272949,-2.433502 -13.884949,-3.979736c-5.612,-1.54628 -13.812531,-6.239136 -18.22345,-10.428543c-4.410858,-4.189331 -10.863312,-9.209396 -14.338623,-11.155533c-8.080139,-4.524719 -21.694702,-16.071281 -18.968872,-16.08757c1.141479,-0.007462 5.485229,2.456337 9.652863,5.473709c5.021606,3.635559 7.12561,4.266846 6.237671,1.871498c-5.902191,-15.922409 -4.378571,-21.208481 1.787903,-6.202789c4.918793,11.96946 17.891144,26.380547 27.372925,30.408653c7.853088,3.336212 22.818787,4.647705 22.818787,1.999695c0,-4.772964 -8.858215,-17.010101 -18.669952,-25.791359c-6.309509,-5.646889 -9.982422,-10.26709 -8.162018,-10.26709c1.820435,0 7.497925,4.158051 12.616669,9.240089c5.118805,5.082062 9.306854,7.819565 9.306854,6.083374c0,-5.788895 -7.897919,-27.80014 -9.975037,-27.80014c-2.76358,0 -17.088348,-15.735924 -15.653107,-17.195145c0.625397,-0.635857 4.589539,2.130745 8.809326,6.147972l7.672272,7.304169l-1.450226,-9.981369c-1.328705,-9.144821 -1.151093,-9.575401 2.11908,-5.137558c1.963043,2.664009 3.595459,8.278519 3.627472,12.476677c0.032104,4.19809 2.787964,14.370293 6.124207,22.604942c3.336273,8.234596 6.071045,16.799904 6.077271,19.034126c0.033173,11.800003 16.057861,33.799149 27.62146,37.919342c6.902771,2.459534 5.328094,-10.122925 -3.06778,-24.514069c-8.85611,-15.180084 -9.505768,-20.155991 -1.303131,-9.981354l6.035065,7.486008l0.088348,-15.916c0.073608,-13.295235 -1.153717,-18.123024 -7.454498,-29.320236c-4.14856,-7.372299 -8.29007,-13.439697 -9.203339,-13.483109c-3.083466,-0.146439 -15.73761,-12.641159 -14.291504,-14.11142c0.788544,-0.801819 4.276337,0.436043 7.750702,2.750603l6.316956,4.208359l-6.405396,-12.852119c-3.52298,-7.06871 -5.91272,-13.353104 -5.310577,-13.965302c1.335876,-1.358246 13.508514,20.538177 21.356018,38.415619c9.003021,20.509621 13.731873,15.123032 6.080597,-6.9263c-4.512238,-13.003349 -7.68924,-40.322693 -4.080627,-35.089935c1.928986,2.797058 2.632813,2.282425 3.412994,-2.495316c0.540619,-3.310486 1.771027,1.841263 2.734375,11.448318c0.963226,9.606995 2.795135,25.327675 4.070801,34.934746c1.275635,9.606979 2.835968,28.696388 3.467499,42.420738c1.38916,30.192764 4.879486,47.142456 11.501129,55.852921c2.730499,3.591766 10.147675,13.727249 16.482605,22.523224c6.334869,8.79599 14.017517,17.64534 17.07251,19.665192l5.554504,3.672409l-1.289001,-44.618546c-1.440399,-49.860855 -2.904999,-67.171585 -6.215302,-73.460579c-1.237061,-2.35025 -8.628448,-8.538719 -16.425262,-13.752151c-13.945618,-9.325081 -18.554901,-13.673409 -16.600433,-15.66066c0.544525,-0.553619 4.434692,1.940422 8.644714,5.542229c8.997345,7.697571 14.928955,8.775352 8.491547,1.542923c-2.450623,-2.753273 -3.726196,-5.747711 -2.834625,-6.654282c0.891663,-0.906509 1.960266,-1.180359 2.374847,-0.608528c9.465332,13.05719 17.274994,22.250137 18.902069,22.250137c2.112488,0 6.359314,-42.15065 5.153961,-51.154419c-0.36734,-2.744896 -2.154175,-7.353065 -3.970581,-10.240425c-1.816376,-2.887299 -3.952698,-9.624741 -4.747284,-14.972061c-1.278046,-8.600464 -1.130951,-9.002457 1.275208,-3.483917c6.928497,15.891037 10.560333,22.458038 12.420258,22.458038c2.860474,0 11.93454,-18.785095 11.93454,-24.706711c0,-2.718536 1.10437,-5.636826 2.454254,-6.485001c5.040039,-3.16716 2.195374,10.460175 -5.135254,24.600342c-11.434631,22.056404 -15.647278,54.541565 -11.624634,89.641647c3.916962,34.178391 7.362061,34.652603 17.723816,2.439438l7.41449,-23.050728l-7.256989,-8.13765c-6.843567,-7.67395 -13.392578,-17.737854 -13.392578,-20.580444c0,-4.117584 5.461792,-0.21756 7.815369,5.580704l2.785461,6.862175l1.500763,-7.486015c1.670776,-8.334274 3.645691,-6.549194 6.211487,5.61451c0.940948,4.460358 2.457764,8.109856 3.37085,8.109856c3.205719,0 7.288147,-13.874153 8.467468,-28.777184c0.968353,-12.236595 0.3255,-16.139824 -3.436035,-20.862976c-2.545013,-3.195633 -4.540131,-9.335281 -4.433533,-13.643555c0.189392,-7.663071 0.274048,-7.602768 3.885803,2.771774c3.553864,10.207977 7.842163,13.978233 8.514618,7.486008c0.177704,-1.71553 1.006012,0.72168 1.840668,5.416138c1.548645,8.709755 7.653198,13.911011 7.653198,6.520706c0,-2.241135 1.665924,-7.350372 3.701996,-11.353745c4.293518,-8.44165 4.846222,-14.380112 2.783417,-29.90332c-1.487061,-11.19104 -1.482574,-11.199478 1.335999,-2.495346c3.767731,11.634979 3.589905,11.546204 9.454498,4.720337c5.77774,-6.724792 5.599548,-5.853851 -2.267365,11.082901c-3.080963,6.633102 -5.096527,12.574005 -4.478912,13.201859c0.617584,0.62796 5.111816,-1.251221 9.987183,-4.175919c6.492645,-3.894928 9.55542,-7.927689 11.447845,-15.073471c3.026672,-11.428223 6.139618,-13.199203 3.989777,-2.269699c-1.672455,8.502258 -0.245789,9.276047 6.187775,3.356247c2.468475,-2.271408 4.488129,-3.0578 4.488129,-1.747604c0,1.310165 -8.924103,8.368225 -19.831421,15.684433c-20.347656,13.648567 -24.359283,18.934341 -22.376007,29.483017c1.029663,5.476753 1.9888,5.899025 10.015472,4.409103c11.341431,-2.105133 19.576294,-7.518303 22.228912,-14.612038c2.339935,-6.257706 9.378632,-13.045799 11.398163,-10.992348c0.724121,0.736221 -1.511353,4.213852 -4.967712,7.728165c-11.369446,11.55983 -6.816742,15.433128 7.537842,6.412888c4.546234,-2.856827 8.26593,-4.107628 8.26593,-2.779686c0,3.103485 -12.038391,8.768097 -30.677887,14.435539c-21.289063,6.473045 -21.437439,6.669357 -19.481476,25.785881c0.923553,9.026329 1.99527,16.777657 2.381592,17.225044c0.729309,0.844666 20.713348,-20.531403 23.715546,-25.367577c0.938995,-1.51252 2.441376,-2.003616 3.338715,-1.091331c0.897247,0.9123 -4.695984,9.242081 -12.429504,18.510574l-14.060822,16.851761l1.152985,18.26741c0.634155,10.046997 1.669067,18.792038 2.299866,19.433289c0.630707,0.641373 5.446442,-1.062836 10.70166,-3.786926c5.255157,-2.724091 10.810211,-4.952911 12.344543,-4.952911c1.534302,0 4.805267,-4.544647 7.268707,-10.099243c2.463531,-5.554489 6.107574,-11.025772 8.097961,-12.158295c2.865997,-1.630783 3.531403,-7.354492 3.198273,-27.514664c-0.296753,-17.961365 0.373718,-24.956436 2.277374,-23.760162c1.483856,0.93248 2.459991,5.787521 2.16925,10.78894c-0.290741,5.001495 -0.374298,17.871811 -0.185516,28.600662c0.333527,18.963745 0.496857,19.463226 5.865051,17.934784l5.521973,-1.572296l-5.206299,4.523346c-6.311523,5.483276 -9.878052,20.74295 -4.848236,20.74295c4.955353,0 20.785797,-24.907471 22.203705,-34.934753c0.67923,-4.803558 3.46936,-16.569687 6.200439,-26.147041c5.222534,-18.314934 6.68158,-47.340225 2.511292,-49.960762c-1.349854,-0.848251 -2.454224,-3.297821 -2.454224,-5.443481c0,-3.038513 0.750732,-3.267807 3.394714,-1.036713c2.617798,2.208923 3.723511,1.993347 4.83136,-0.942154c0.790253,-2.093628 2.614685,-3.806671 4.054352,-3.806671c1.742645,0 1.841339,1.47467 0.29541,4.41185c-1.277313,2.426498 -3.076324,13.936211 -3.998016,25.577217c-0.921631,11.64093 -3.780884,28.585274 -6.353912,37.65403c-2.573029,9.068817 -4.688568,19.174911 -4.701202,22.458038c-0.027954,7.253159 -12.005432,28.954544 -19.961456,36.167175c-3.181671,2.884415 -9.277069,9.621841 -13.545288,14.972031c-4.268158,5.350204 -11.753754,14.219193 -16.634583,19.708969c-18.531433,20.843262 -25.395264,44.883881 -25.784363,90.308655c-0.217499,25.372681 5.423737,23.484833 28.260162,-9.457123c10.211182,-14.729858 13.577148,-21.970093 15.080994,-32.439392c1.897583,-13.21019 0.480255,-36.30838 -3.108307,-50.654587c-1.291748,-5.164047 -1.005463,-6.727921 1.000824,-5.467224c1.545532,0.971237 2.810089,3.879089 2.810089,6.462006c0,9.935959 4.688629,6.951889 8.79129,-5.595169c2.359375,-7.215988 4.742096,-11.746017 5.294861,-10.066727c0.552734,1.67923 -1.286133,9.614304 -4.086426,17.633453c-3.013245,8.629272 -5.069824,20.62355 -5.038757,29.386261l0.05249,14.805832l10.710541,-17.467255c5.890778,-9.607086 16.426361,-23.809448 23.412384,-31.560852c11.644989,-12.920883 13.206085,-16.138885 18.761963,-38.677734c6.490265,-26.329224 8.001099,-50.067307 4.780823,-75.114876c-1.439392,-11.195053 -1.216492,-15.595863 0.789917,-15.595863c1.751862,0 2.795105,5.12249 2.795105,13.72435c0,7.548393 0.958862,13.724373 2.130829,13.724373c2.4039,0 10.14032,-26.189552 10.14032,-34.327362c0,-2.917 1.174835,-6.041794 2.610748,-6.944115c3.136536,-1.970947 1.655518,7.393494 -6.608246,41.783134c-6.743073,28.060905 -6.902679,29.850243 -2.085419,23.376198c5.624084,-7.558426 7.094635,-2.649078 1.56842,5.236191c-5.056152,7.214462 -14.382874,44.821365 -11.773834,47.474121c2.240387,2.277832 26.759247,-20.03894 34.509918,-31.410522c4.823212,-7.076553 7.130127,-13.813232 7.558014,-22.07196c0.338837,-6.537697 0.751221,-13.851761 0.916412,-16.253517c0.165161,-2.40181 1.454895,-4.366829 2.865875,-4.366829c1.602844,0 1.960754,3.277412 0.954041,8.733681c-1.993744,10.805397 0.124634,10.958687 10.475555,0.758163c4.451233,-4.386559 8.093079,-6.860275 8.093079,-5.497162c0,1.36319 -4.417633,6.864388 -9.816895,12.225006c-5.399353,5.360558 -9.816895,10.965538 -9.816895,12.455452c0,1.489975 -2.1922,7.080734 -4.871399,12.42392c-2.67923,5.343185 -4.438507,10.155045 -3.909424,10.692902c0.529083,0.537949 4.480408,-0.871841 8.780823,-3.132874c4.300262,-2.261093 8.428833,-3.490707 9.1745,-2.73262c0.745667,0.758163 -4.050659,3.987518 -10.658539,7.176376c-6.60788,3.188766 -15.327484,8.806793 -19.376953,12.484467c-4.04953,3.677582 -12.702454,11.222092 -19.22879,16.765488c-12.584137,10.688858 -39.313416,42.363464 -37.395203,44.313858c1.735413,1.76445 23.791565,-6.39476 28.19696,-10.430878c6.617981,-6.063416 39.236206,-17.101608 36.310059,-12.287521c-0.790039,1.299591 -7.028442,3.911224 -13.863098,5.803528c-13.550598,3.751755 -16.367859,7.50679 -5.67749,7.567261c7.447296,0.042191 14.853821,3.782135 12.410217,6.266678c-0.857666,0.872009 -3.790161,0.371613 -6.516724,-1.112045c-2.726501,-1.483597 -7.101318,-2.697449 -9.72171,-2.697449c-6.045197,0 -30.234772,10.820374 -41.336029,18.490143c-7.616669,5.26239 -30.303314,36.512909 -30.303314,41.742401c0,4.01181 -21.514343,35.880859 -29.141418,43.167023c-11.584534,11.066681 -9.290039,12.2883 7.191895,3.828766c10.470428,-5.373901 19.719696,-8.013275 31.291443,-8.929108c26.1875,-2.072662 25.641266,-1.753876 33.185577,-19.361542c3.792053,-8.850342 9.027496,-18.053864 11.634277,-20.452667c2.606873,-2.398621 4.754791,-6.713531 4.773193,-9.588867c0.049377,-7.705048 2.703064,-16.456818 4.989868,-16.456818c1.098206,0 0.988281,3.575165 -0.244141,7.94458c-3.06134,10.853149 -1.135223,11.688354 7.517578,3.259583c4.03537,-3.930939 7.337067,-5.889404 7.337067,-4.352051c0,1.537354 -4.969879,6.93573 -11.044037,11.99649c-6.074219,5.06073 -11.044037,10.16745 -11.044037,11.348267c0,1.180939 5.24588,1.448853 11.657623,0.595673c6.411621,-0.853363 11.0336,-0.852631 10.271057,0.001648c-0.762512,0.854431 -7.346497,2.425446 -14.631042,3.491425c-12.430939,1.818939 -13.460632,2.514984 -16.760681,11.330902c-1.933838,5.166138 -2.886902,10.032684 -2.117859,10.814575c0.769135,0.781982 8.935303,-3.959869 18.147125,-10.537384c9.212006,-6.577667 22.270966,-15.592529 29.020111,-20.033051c21.456604,-14.11731 22.856506,-15.567261 30.727509,-31.823334c9.920959,-20.489838 14.076996,-46.279907 12.309204,-76.383408c-0.958984,-16.331329 -0.377106,-22.458054 2.132904,-22.458054c1.221436,0 1.637207,4.423737 0.92395,9.830566c-1.345032,10.195358 0.906555,24.312271 3.462952,21.713058c2.251312,-2.289047 12.635498,-29.044708 14.346313,-36.964172c0.838318,-3.88092 2.488068,-7.056137 3.666077,-7.056137c2.698792,0 -1.912659,14.976517 -13.29718,43.184479c-7.838959,19.423096 -10.886139,31.675659 -7.877533,31.675659c0.545013,0 7.818146,-7.018127 16.162598,-15.595871c18.875641,-19.403427 18.569611,-15.128952 -0.371429,5.188309c-15.06543,16.159912 -19.235321,22.57196 -19.238312,29.582336c-0.001038,2.49205 -3.341522,11.708481 -7.423279,20.48114c-4.081757,8.772522 -7.057159,16.320374 -6.612061,16.772888c0.445038,0.452484 9.583618,-2.484985 20.307892,-6.52774c20.978027,-7.908356 28.630188,-14.64975 41.072021,-36.184311c3.766357,-6.518814 7.553284,-11.135193 8.415466,-10.25853c0.862183,0.876556 -0.838867,4.903244 -3.78009,8.94812c-11.400452,15.678329 -1.565125,17.444595 14.286194,2.565704c5.848511,-5.489792 12.874878,-9.981354 15.614197,-9.981354c3.539673,0 1.646423,2.149841 -6.543945,7.43103c-6.33844,4.087051 -11.524475,8.491592 -11.524475,9.787842c0,1.296173 -3.612,3.568771 -8.026672,5.050232c-4.414673,1.481293 -13.370178,7.182922 -19.901062,12.670105l-11.87439,9.976807l10.697693,0.262726c8.959412,0.219757 7.706848,0.743561 -7.708984,3.222565c-10.123718,1.627991 -21.719971,4.750366 -25.76944,6.93866c-4.04953,2.18811 -13.43692,5.280334 -20.860931,6.871307c-7.424103,1.590973 -17.558594,5.930084 -22.52121,9.642303c-12.503571,9.353271 -38.659485,31.464966 -38.00589,32.129639c0.295776,0.300659 9.151978,1.080872 19.68045,1.733673c22.280365,1.381378 30.494263,-0.922333 39.360291,-11.039581c3.537933,-4.037262 7.663788,-7.340576 9.168488,-7.340576c3.403534,0 -1.087769,6.465912 -9.957825,14.335876c-8.02478,7.119873 -4.657104,7.225586 20.638275,0.647766c21.604919,-5.618164 21.978729,-5.856812 40.20517,-25.6651c15.767822,-17.136292 20.183289,-17.213501 5.362183,-0.093811c-5.665955,6.544617 -9.284424,12.24411 -8.041016,12.665527c2.838501,0.962097 31.955261,-15.597992 38.75708,-22.042847c2.786621,-2.64035 6.652039,-4.795166 8.589783,-4.788269c7.218323,0.025391 -27.670898,25.798187 -51.213257,37.83136c-14.5401,7.431976 -13.820892,8.158447 10.720154,10.827271c8.186829,0.890198 16.469849,2.723511 18.406677,4.073944c2.522888,1.758942 1.433655,2.061279 -3.841125,1.066254c-4.049561,-0.763916 -15.348877,-2.50946 -25.109619,-3.878662c-9.760773,-1.369354 -18.596039,-2.741333 -19.633881,-3.048523c-3.760498,-1.113647 -18.172058,5.447266 -16.826813,7.6604c0.75943,1.249359 8.57309,3.651306 17.363678,5.337799c8.790619,1.686432 15.983002,4.137726 15.983002,5.447235c0,1.309509 -1.932739,1.762787 -4.294922,1.007202c-2.362244,-0.755432 -10.259583,-2.518646 -17.549744,-3.917847c-7.2901,-1.399353 -14.705383,-3.76828 -16.47821,-5.264343c-1.883118,-1.588989 -19.255951,-3.193359 -41.780762,-3.858459c-21.206512,-0.626129 -39.192627,-1.517395 -39.968964,-1.980408c-0.776489,-0.463013 -12.957001,0.165405 -27.067841,1.396759c-28.826874,2.515289 -38.122284,6.886566 -47.096619,22.147675c-4.040527,6.871155 -5.120117,12.805206 -5.061981,27.82489c0.088593,22.870361 4.966827,33.344971 14.407654,30.93573c3.413361,-0.871063 8.24588,0.191437 11.879059,2.611847c3.740997,2.492432 6.124695,2.997467 6.124695,1.298065c0,-1.530365 2.08606,-2.78241 4.635803,-2.78241c2.853516,0 4.504669,1.624146 4.294861,4.224426c-0.22998,2.850525 2.586914,5.082214 8.661652,6.862183c9.586304,2.808929 14.977692,6.469696 9.199707,6.246582c-1.912292,-0.073883 -10.103271,-2.303009 -18.202179,-4.953857l-0.000244,0zm110.440308,-97.220856c0.83429,-1.372406 -0.822388,-2.495331 -3.681335,-2.495331c-2.858978,0 -4.515564,1.122925 -3.681366,2.495331c0.83429,1.372528 2.490875,2.495331 3.681366,2.495331c1.190491,0 2.847137,-1.122803 3.681335,-2.495331zm-61.355713,-2.495331c-0.834229,-1.372437 -2.621185,-2.495361 -3.971069,-2.495361c-1.349792,0 -1.771606,1.122925 -0.937378,2.495361c0.83429,1.372559 2.621155,2.495331 3.971008,2.495331c1.349792,0 1.771729,-1.122772 0.937439,-2.495331zm9.049957,0.790741c-1.771606,-0.720673 -3.888458,-0.63205 -4.703888,0.19693c-0.815582,0.829132 0.633972,1.419006 3.221161,1.310577c2.859039,-0.11972 3.440521,-0.710968 1.482727,-1.507507zm9.816925,0c-1.771606,-0.720673 -3.888428,-0.63205 -4.703918,0.19693c-0.815552,0.829132 0.634003,1.419006 3.221191,1.310577c2.859009,-0.11972 3.440521,-0.710968 1.482727,-1.507507zm-55.518982,-3.551422c1.176147,-1.934998 -1.466583,-2.313477 -8.83667,-1.26532c-13.967651,1.986481 -15.448303,4.026001 -2.922577,4.026001c5.544586,0 10.836273,-1.242218 11.759247,-2.760681zm-143.083252,-8.262604c-18.614716,-12.46463 -19.658325,-12.910461 -13.107361,-5.598663c3.272369,3.652374 6.940521,6.640564 8.151489,6.640564c1.210999,0 3.858368,1.684509 5.883087,3.743042c2.02478,2.058685 5.509949,3.742981 7.744965,3.742981c2.235016,0 -1.667511,-3.837585 -8.67218,-8.527924zm99.837128,-5.514587c0.074585,-1.547577 1.792328,-4.21167 3.817139,-5.920197c2.02475,-1.708374 3.681335,-4.200348 3.681335,-5.537567c0,-2.868011 -21.847717,20.795929 -21.990631,23.818695c-0.053497,1.133606 3.154663,-0.55072 7.129456,-3.743011c3.974792,-3.192444 7.287994,-7.070526 7.362701,-8.61792zm52.134735,12.337952c-1.771606,-0.720734 -3.888428,-0.63205 -4.703918,0.19693c-0.815552,0.829132 0.634033,1.419006 3.221191,1.310547c2.85907,-0.11969 3.440552,-0.710938 1.482727,-1.507477zm16.719452,-0.790802c0,-1.372375 1.260162,-2.4953 2.800385,-2.4953c3.665039,0 26.65036,-17.842804 26.65036,-20.687988c0,-1.207306 -5.245941,1.609528 -11.657562,6.259521c-6.411682,4.650116 -14.694702,9.774658 -18.406738,11.388184c-7.244446,3.14856 -9.109436,8.030945 -3.06781,8.030945c2.02478,0 3.681366,-1.122803 3.681366,-2.495361zm-101.165222,-19.359558c1.647827,-10.647827 2.996033,-28.063873 2.996033,-38.702423l0,-19.342667l-16.56604,-18.241974c-15.576935,-17.152725 -22.701599,-30.743286 -22.701599,-43.304337c0,-3.434158 -0.607056,-3.660767 -3.06778,-1.145172c-2.147095,2.194992 -2.925415,11.445068 -2.593475,30.821548c0.380096,22.185196 1.732666,31.542633 6.808228,47.100876c6.374817,19.540985 27.231842,62.173706 30.416931,62.173706c0.941467,0 3.059937,-8.711731 4.707703,-19.359558zm-95.164032,-6.831543c-3.165253,-3.425629 -6.378326,-5.594727 -7.140259,-4.819977c-0.761932,0.774628 1.359253,3.55249 4.713654,6.173004c8.383148,6.549072 9.270721,6.05423 2.426605,-1.353027zm102.097137,-10.563019c-0.815552,-0.829132 -1.39566,0.644531 -1.289063,3.275146c0.117828,2.90686 0.69931,3.498077 1.482758,1.507507c0.708954,-1.8013 0.621796,-3.953491 -0.193604,-4.782654l-0.000092,0zm-46.437958,-21.856415c-4.295929,-13.02182 -9.18808,-23.689438 -10.871552,-23.705734c-1.683289,-0.017532 -7.738708,-4.240662 -13.456299,-9.387314c-8.080658,-7.273697 -9.536133,-7.968338 -6.535797,-3.119156c2.122955,3.431076 7.867371,8.930069 12.765503,12.220123c6.527618,4.384354 10.056458,9.381912 13.215179,18.715042c2.370117,7.003204 4.462006,14.678101 4.648468,17.055084c0.299683,3.819 5.245758,11.897797 7.284119,11.897797c0.41861,0 -2.753723,-10.654083 -7.049622,-23.675842zm49.589264,-6.892059c0.201691,-15.976624 -0.45517,-21.929626 -2.13385,-19.338791c-3.013153,4.65065 -3.306091,42.42067 -0.328918,42.42067c1.194214,0 2.30249,-10.38678 2.462769,-23.081879zm52.857666,5.314178c-0.745605,-1.226501 0.370941,-2.903839 2.481262,-3.727173c2.110321,-0.823364 3.836884,-2.887207 3.836884,-4.586334c0,-1.699066 2.092712,-5.014862 4.650452,-7.368423c2.557739,-2.353378 5.18161,-7.104187 5.830811,-10.557205c1.476013,-7.850784 -0.133545,-6.096252 -12.683838,13.825958c-10.393829,16.498993 -12.782593,23.100891 -6.414246,17.72702c2.009888,-1.695892 3.04425,-4.087219 2.298676,-5.313843zm-57.212219,-31.515167c3.227264,-50.402725 0.405121,-77.250992 -9.373077,-89.169189c-3.7724,-4.598114 -8.93158,-11.379425 -11.464844,-15.06958l-4.605804,-6.709343l-6.762482,21.380959c-9.011078,28.490402 -10.280792,34.045898 -7.781708,34.045898c2.99939,0 7.803375,-11.593781 7.803375,-18.832458c0,-3.366516 1.154449,-6.120941 2.56543,-6.120941c3.078125,0 0.714966,14.826279 -4.316833,27.083344c-5.923737,14.42984 1.711945,33.470108 19.952515,49.753876c10.14505,9.056625 13.579315,9.949966 13.983429,3.637436zm15.466492,-4.719788c1.262024,-3.343826 0.892242,-3.544342 -2.013824,-1.092178c-2.947266,2.48703 -3.7211,1.796341 -4.497437,-4.013885c-0.76889,-5.754089 -1.290009,-6.2314 -2.894592,-2.650833c-2.490936,5.558624 -0.173492,11.852859 4.364227,11.852859c1.922699,0 4.191406,-1.84317 5.041626,-4.095963zm72.921661,-13.995239c2.66806,-5.091034 2.561707,-5.295212 -1.140778,-2.189819c-2.245789,1.883621 -4.08316,4.410172 -4.08316,5.614517c0,3.811615 2.180908,2.381866 5.223938,-3.424698zm-56.755096,-14.356949c9.768372,-11.202759 16.005035,-20.832062 17.37381,-26.82489c4.137695,-18.11586 3.628235,-18.522675 -11.859436,-9.468765c-24.350555,14.235016 -26.515839,17.363113 -25.559998,36.926239c0.452667,9.263947 1.719391,16.843552 2.815002,16.843552c1.095673,0 8.849487,-7.864273 17.230621,-17.476135zm-24.264801,-1.486099c-1.806976,-7.830292 -2.294495,-8.4319 -2.492798,-3.07608c-0.25592,6.91069 2.095917,15.497635 3.776611,13.788864c0.529358,-0.538239 -0.048401,-5.359024 -1.283813,-10.712784zm92.975586,2.131409c0,-0.686203 -1.656616,0.150238 -3.681366,1.85878c-2.02475,1.708542 -3.681335,3.667847 -3.681335,4.35405c0,0.686279 1.656586,-0.150162 3.681335,-1.858719c2.02475,-1.708527 3.681366,-3.667831 3.681366,-4.354111zm-94.698517,-36.533081c-0.931427,-10.450531 -2.765289,-19.000916 -4.075256,-19.000916c-1.309906,0 -1.74649,2.573471 -0.970123,5.718765c0.776459,3.145294 2.156067,12.157684 3.065704,20.02742c2.410553,20.853622 3.966858,15.55101 1.979675,-6.74527zm-52.555237,7.200134c0,-2.058685 -1.104462,-3.743011 -2.454254,-3.743011c-1.349792,0 -2.454224,1.684326 -2.454224,3.743011c0,2.058685 1.104431,3.743011 2.454224,3.743011c1.349792,0 2.454254,-1.684326 2.454254,-3.743011zm97.276093,-25.445557c-1.005432,-1.022247 -2.855469,-0.206818 -4.111267,1.812103c-3.778717,6.075089 -2.645294,8.774902 1.790497,4.264893c2.281799,-2.320114 3.326172,-5.054718 2.32077,-6.076996zm-52.028564,-18.997314c-0.766357,-5.749985 -2.374176,-15.507614 -3.572845,-21.683586c-1.1987,-6.17598 -2.879913,-16.001373 -3.736084,-21.834213c-1.870728,-12.745193 -6.03363,-14.100166 -6.03363,-1.963875c0,4.752701 -2.136536,14.152489 -4.747803,20.888329c-5.245941,13.532005 -4.612305,15.664101 9.181122,30.893608c7.896851,8.718979 10.651489,6.771011 8.909241,-6.300262z"/>
  </g>
 </g>
</svg>